<svg width="444" height="75" viewBox="0 0 444 75" fill="none" xmlns="http://www.w3.org/2000/svg">
<path d="M71.5755 18.1787C70.7552 14.707 68.3464 11.9824 65.2865 11.0596C59.7396 9.375 37.5 9.375 37.5 9.375C37.5 9.375 15.2604 9.375 9.71354 11.0596C6.65364 11.9824 4.24479 14.707 3.42448 18.1787C1.9401 24.4629 1.9401 37.5586 1.9401 37.5586C1.9401 37.5586 1.9401 50.6543 3.42448 56.9385C4.24479 60.4102 6.65364 63.0176 9.71354 63.9404C15.2604 65.625 37.5 65.625 37.5 65.625C37.5 65.625 59.7396 65.625 65.2865 63.9404C68.3464 63.0176 70.7552 60.3955 71.5755 56.9385C73.0599 50.6543 73.0599 37.5586 73.0599 37.5586C73.0599 37.5586 73.0599 24.4629 71.5755 18.1787ZM30.2344 49.4531V25.6641L48.8151 37.5586L30.2344 49.4531Z" fill="#1E3050"/>
<g clip-path="url(#clip0_125_22)">
<path d="M198 37.5C198 16.7871 181.213 0 160.5 0C139.787 0 123 16.7871 123 37.5C123 55.0781 135.114 69.8438 151.447 73.9014V48.9551H143.713V37.5H151.447V32.5635C151.447 19.8047 157.219 13.8867 169.758 13.8867C172.131 13.8867 176.232 14.3555 177.917 14.8242V25.1953C177.038 25.1074 175.5 25.0488 173.581 25.0488C167.429 25.0488 165.056 27.3779 165.056 33.4277V37.5H177.302L175.192 48.9551H165.041V74.7217C183.615 72.4805 198 56.6748 198 37.5Z" fill="#1E3050"/>
</g>
<path d="M315.643 4.6875H251.34C248.394 4.6875 246 6.81152 246 9.41895V65.5811C246 68.1885 248.394 70.3125 251.34 70.3125H315.643C318.589 70.3125 321 68.1885 321 65.5811V9.41895C321 6.81152 318.589 4.6875 315.643 4.6875ZM268.667 60.9375H257.551V29.6191H268.684V60.9375H268.667ZM263.109 25.3418C259.544 25.3418 256.664 22.8076 256.664 19.7021C256.664 16.5967 259.544 14.0625 263.109 14.0625C266.658 14.0625 269.555 16.5967 269.555 19.7021C269.555 22.8223 266.675 25.3418 263.109 25.3418ZM310.336 60.9375H299.22V45.7031C299.22 42.0703 299.136 37.3975 293.444 37.3975C287.652 37.3975 286.765 41.3525 286.765 45.4395V60.9375H275.648V29.6191H286.312V33.8965H286.463C287.953 31.4355 291.586 28.8428 296.993 28.8428C308.243 28.8428 310.336 35.332 310.336 43.7695V60.9375Z" fill="#1E3050"/>
<g clip-path="url(#clip1_125_22)">
<path d="M406.517 20.6545C395.869 20.6545 387.281 28.1692 387.281 37.4856C387.281 46.802 395.869 54.3166 406.517 54.3166C417.164 54.3166 425.752 46.802 425.752 37.4856C425.752 28.1692 417.164 20.6545 406.517 20.6545ZM406.517 48.428C399.636 48.428 394.011 43.5208 394.011 37.4856C394.011 31.4504 399.619 26.5432 406.517 26.5432C413.414 26.5432 419.022 31.4504 419.022 37.4856C419.022 43.5208 413.397 48.428 406.517 48.428ZM431.026 19.9661C431.026 22.1487 429.017 23.8918 426.539 23.8918C424.045 23.8918 422.052 22.134 422.052 19.9661C422.052 17.7981 424.061 16.0403 426.539 16.0403C429.017 16.0403 431.026 17.7981 431.026 19.9661ZM443.766 23.9504C443.481 18.6917 442.108 14.0334 437.705 10.1956C433.319 6.35767 427.996 5.15649 421.985 4.89282C415.791 4.58521 397.225 4.58521 391.031 4.89282C385.038 5.14185 379.714 6.34302 375.311 10.1809C370.908 14.0188 369.552 18.677 369.251 23.9358C368.9 29.3557 368.9 45.6008 369.251 51.0207C369.536 56.2795 370.908 60.9377 375.311 64.7756C379.714 68.6135 385.021 69.8147 391.031 70.0784C397.225 70.386 415.791 70.386 421.985 70.0784C427.996 69.8293 433.319 68.6282 437.705 64.7756C442.092 60.9377 443.464 56.2795 443.766 51.0207C444.117 45.6008 444.117 29.3704 443.766 23.9504ZM435.763 56.8362C434.458 59.7073 431.93 61.9192 428.632 63.0764C423.693 64.7903 411.974 64.3948 406.517 64.3948C401.059 64.3948 389.324 64.7756 384.402 63.0764C381.121 61.9338 378.593 59.7219 377.27 56.8362C375.311 52.5149 375.763 42.261 375.763 37.4856C375.763 32.7102 375.328 22.4417 377.27 18.135C378.576 15.2639 381.104 13.052 384.402 11.8948C389.34 10.1809 401.059 10.5764 406.517 10.5764C411.974 10.5764 423.71 10.1956 428.632 11.8948C431.913 13.0374 434.441 15.2493 435.763 18.135C437.722 22.4563 437.27 32.7102 437.27 37.4856C437.27 42.261 437.722 52.5295 435.763 56.8362Z" fill="#1E3050"/>
</g>
<defs>
<clipPath id="clip0_125_22">
<rect width="75" height="75" fill="white" transform="translate(123)"/>
</clipPath>
<clipPath id="clip1_125_22">
<rect width="75" height="75" fill="white" transform="translate(369)"/>
</clipPath>
</defs>
</svg>
