<svg width="75" height="67" viewBox="0 0 75 67" fill="none" xmlns="http://www.w3.org/2000/svg">
<path d="M37.5167 16.6545C26.8694 16.6545 18.2812 24.1692 18.2812 33.4856C18.2812 42.802 26.8694 50.3166 37.5167 50.3166C48.1641 50.3166 56.7522 42.802 56.7522 33.4856C56.7522 24.1692 48.1641 16.6545 37.5167 16.6545ZM37.5167 44.428C30.6362 44.428 25.0112 39.5208 25.0112 33.4856C25.0112 27.4504 30.6194 22.5432 37.5167 22.5432C44.4141 22.5432 50.0223 27.4504 50.0223 33.4856C50.0223 39.5208 44.3973 44.428 37.5167 44.428ZM62.0257 15.9661C62.0257 18.1487 60.0167 19.8918 57.5391 19.8918C55.0446 19.8918 53.0525 18.134 53.0525 15.9661C53.0525 13.7981 55.0614 12.0403 57.5391 12.0403C60.0167 12.0403 62.0257 13.7981 62.0257 15.9661ZM74.7656 19.9504C74.481 14.6917 73.1083 10.0334 68.7054 6.19556C64.3192 2.35767 58.9955 1.15649 52.9855 0.892822C46.7913 0.585205 28.2254 0.585205 22.0312 0.892822C16.0379 1.14185 10.7143 2.34302 6.31138 6.18091C1.90848 10.0188 0.552453 14.677 0.251114 19.9358C-0.100449 25.3557 -0.100449 41.6008 0.251114 47.0207C0.535712 52.2795 1.90848 56.9377 6.31138 60.7756C10.7143 64.6135 16.0212 65.8147 22.0312 66.0784C28.2254 66.386 46.7913 66.386 52.9855 66.0784C58.9955 65.8293 64.3192 64.6282 68.7054 60.7756C73.0915 56.9377 74.4643 52.2795 74.7656 47.0207C75.1172 41.6008 75.1172 25.3704 74.7656 19.9504ZM66.7634 52.8362C65.4576 55.7073 62.9297 57.9192 59.6317 59.0764C54.6931 60.7903 42.9743 60.3948 37.5167 60.3948C32.0592 60.3948 20.3237 60.7756 15.4018 59.0764C12.1205 57.9338 9.59263 55.7219 8.27009 52.8362C6.31138 48.5149 6.76339 38.261 6.76339 33.4856C6.76339 28.7102 6.32812 18.4417 8.27009 14.135C9.57589 11.2639 12.1038 9.052 15.4018 7.89477C20.3404 6.18091 32.0592 6.57642 37.5167 6.57642C42.9743 6.57642 54.7098 6.19556 59.6317 7.89477C62.9129 9.03735 65.4408 11.2493 66.7634 14.135C68.7221 18.4563 68.2701 28.7102 68.2701 33.4856C68.2701 38.261 68.7221 48.5295 66.7634 52.8362Z" fill="#1E3050"/>
</svg>
