<svg width="75" height="75" viewBox="0 0 75 75" fill="none" xmlns="http://www.w3.org/2000/svg">
<path d="M75 37.5C75 16.7871 58.2129 0 37.5 0C16.7871 0 0 16.7871 0 37.5C0 55.0781 12.1143 69.8438 28.4473 73.9014V48.9551H20.7129V37.5H28.4473V32.5635C28.4473 19.8047 34.2188 13.8867 46.7578 13.8867C49.1309 13.8867 53.2324 14.3555 54.917 14.8242V25.1953C54.0381 25.1074 52.5 25.0488 50.5811 25.0488C44.4287 25.0488 42.0557 27.3779 42.0557 33.4277V37.5H54.3018L52.1924 48.9551H42.041V74.7217C60.6152 72.4805 75 56.6748 75 37.5Z" fill="#1E3050"/>
</svg>
