<svg width="75" height="67" viewBox="0 0 75 67" fill="none" xmlns="http://www.w3.org/2000/svg">
<path d="M69.6429 0.6875H5.3404C2.39397 0.6875 0 2.81152 0 5.41895V61.5811C0 64.1885 2.39397 66.3125 5.3404 66.3125H69.6429C72.5893 66.3125 75 64.1885 75 61.5811V5.41895C75 2.81152 72.5893 0.6875 69.6429 0.6875ZM22.6674 56.9375H11.5513V25.6191H22.6842V56.9375H22.6674ZM17.1094 21.3418C13.5435 21.3418 10.6641 18.8076 10.6641 15.7021C10.6641 12.5967 13.5435 10.0625 17.1094 10.0625C20.6585 10.0625 23.5547 12.5967 23.5547 15.7021C23.5547 18.8223 20.6752 21.3418 17.1094 21.3418ZM64.3359 56.9375H53.2199V41.7031C53.2199 38.0703 53.1362 33.3975 47.4442 33.3975C41.6518 33.3975 40.7645 37.3525 40.7645 41.4395V56.9375H29.6484V25.6191H40.3125V29.8965H40.4632C41.9531 27.4355 45.5859 24.8428 50.9933 24.8428C62.2433 24.8428 64.3359 31.332 64.3359 39.7695V56.9375Z" fill="#1E3050"/>
</svg>
