<svg width="75" height="75" viewBox="0 0 75 75" fill="none" xmlns="http://www.w3.org/2000/svg">
<path d="M71.5755 18.1787C70.7552 14.707 68.3464 11.9824 65.2865 11.0596C59.7396 9.375 37.5 9.375 37.5 9.375C37.5 9.375 15.2604 9.375 9.71354 11.0596C6.65364 11.9824 4.24479 14.707 3.42448 18.1787C1.9401 24.4629 1.9401 37.5586 1.9401 37.5586C1.9401 37.5586 1.9401 50.6543 3.42448 56.9385C4.24479 60.4102 6.65364 63.0176 9.71354 63.9404C15.2604 65.625 37.5 65.625 37.5 65.625C37.5 65.625 59.7396 65.625 65.2865 63.9404C68.3464 63.0176 70.7552 60.3955 71.5755 56.9385C73.0599 50.6543 73.0599 37.5586 73.0599 37.5586C73.0599 37.5586 73.0599 24.4629 71.5755 18.1787ZM30.2344 49.4531V25.6641L48.8151 37.5586L30.2344 49.4531Z" fill="#1E3050"/>
</svg>
